<?xml version="1.0" standalone="no"?>
<!DOCTYPE svg PUBLIC "-//W3C//DTD SVG 20010904//EN"
 "http://www.w3.org/TR/2001/REC-SVG-20010904/DTD/svg10.dtd">
<svg version="1.0" xmlns="http://www.w3.org/2000/svg"
 width="256.000000pt" height="256.000000pt" viewBox="0 0 256.000000 256.000000"
 preserveAspectRatio="xMidYMid meet">
<metadata>
Created by potrace 1.11, written by Peter Selinger 2001-2013
</metadata>
<g transform="translate(0.000000,256.000000) scale(0.100000,-0.100000)"
fill="#000000" stroke="none">
<path d="M0 1280 l0 -1280 1280 0 1280 0 0 1280 0 1280 -1280 0 -1280 0 0
-1280z m961 866 c232 -50 329 -204 329 -527 l0 -129 -154 0 -154 0 -4 163 c-3
140 -6 167 -24 197 -30 52 -75 72 -156 68 -78 -4 -107 -24 -142 -98 -20 -43
-21 -61 -24 -504 -2 -291 1 -489 7 -540 18 -135 57 -185 150 -194 76 -7 131
17 161 71 23 39 25 55 28 210 l4 167 155 0 156 0 -6 -162 c-3 -100 -11 -184
-21 -217 -59 -210 -205 -310 -451 -310 -217 -1 -363 77 -440 232 -59 121 -66
171 -72 567 -6 419 4 598 41 716 53 164 147 251 316 290 75 16 221 17 301 0z
m879 -786 l0 -780 215 0 215 0 0 -110 0 -110 -375 0 -375 0 0 890 0 890 160 0
160 0 0 -780z"/>
</g>
</svg>
